<?xml version="1.0" encoding="iso-8859-1"?>
<!-- Generator: Adobe Illustrator 16.0.0, SVG Export Plug-In . SVG Version: 6.00 Build 0)  -->
<!DOCTYPE svg PUBLIC "-//W3C//DTD SVG 1.1//EN" "http://www.w3.org/Graphics/SVG/1.1/DTD/svg11.dtd">
<svg version="1.1" id="Capa_1" xmlns="http://www.w3.org/2000/svg" xmlns:xlink="http://www.w3.org/1999/xlink" x="0px" y="0px"
	 width="885.201px" height="885.2px" viewBox="0 0 885.201 885.2" style="enable-background:new 0 0 885.201 885.2;"
	 xml:space="preserve">
<g>
	<g>
		<path d="M480.4,878.3c-3.699-3.899-7-7.7-9.801-11c-10-12-19.398-25.3-27.799-39.6c-8.5,14.3-17.9,27.7-28,39.7
			c-2.8,3.399-6.2,7.1-9.9,11c10.9,4.3,23.801,6.8,37.7,6.8C456.5,885.2,469.5,882.7,480.4,878.3z"/>
		<path d="M290.3,834.2c0,0,2.8,35.899,28.5,48.3c2.2,1.1,4.7,1.6,7.6,1.6c12.601,0,30.7-10.5,49.301-29.5v-0.1
			c12.699-13,25.6-29.4,37.3-50.4l0,0c5.7-10,11.1-20.6,16-32c-23.601-4.5-41-20.5-41-39.5c0-22.5,24.5-40.8,54.6-40.8
			c30.201,0,54.601,18.3,54.601,40.8c0,18.9-17.301,34.9-40.602,39.5c4.9,11.601,10.301,22.4,16,32.301
			c11.602,20.3,24.4,37.199,36.9,50.1c18.6,19.1,36.6,29.6,49.201,29.6c2.799,0,5.398-0.5,7.6-1.6c25.699-12.4,28-48.3,28-48.3
			s0-24.8,0-177s76-122.3,76-331.5c0-152.1-26.1-266.7-40.4-318c-1.4-5.1-6.301-7.6-11.199-7.6c-4.602,0-9.102,2.3-10.9,6.9
			C575.9,88.6,535,261,535,261h-184.1c0,0-41-172.8-72.899-254.2c-1.8-4.5-6.3-6.8-10.9-6.8c-4.899,0-9.8,2.6-11.2,7.6
			c-14.399,51.2-41,165.9-41,318.2c0,209.2,75.4,179.2,75.4,331.5S290.3,834.2,290.3,834.2z M543.599,430.6
			c17.9,0,32.301,14.5,32.301,32.301c0,17.899-14.5,32.3-32.301,32.3c-17.898,0-32.299-14.5-32.299-32.3
			C511.201,445.1,525.701,430.6,543.599,430.6z M340.6,430.6c17.9,0,32.3,14.5,32.3,32.301c0,17.899-14.5,32.3-32.3,32.3
			c-17.899,0-32.3-14.5-32.3-32.3C308.2,445.1,322.7,430.6,340.6,430.6z"/>
	</g>
</g>
<g>
</g>
<g>
</g>
<g>
</g>
<g>
</g>
<g>
</g>
<g>
</g>
<g>
</g>
<g>
</g>
<g>
</g>
<g>
</g>
<g>
</g>
<g>
</g>
<g>
</g>
<g>
</g>
<g>
</g>
</svg>
